<svg width="84" height="83" viewBox="0 0 84 83" fill="none" xmlns="http://www.w3.org/2000/svg">
<path d="M61.7377 18.5917C58.2067 15.5891 54.028 13.4456 49.5294 12.3293C45.0308 11.2129 40.3348 11.1541 35.8097 12.1575C31.2846 13.1608 27.0535 15.199 23.4484 18.1122C19.8433 21.0254 16.9622 24.7343 15.0313 28.9479C13.1003 33.1615 12.1719 37.7653 12.319 42.398C12.466 47.0306 13.6845 51.5662 15.8789 55.6489C18.0732 59.7316 21.1837 63.2503 24.9663 65.9289C28.7489 68.6076 33.1007 70.3734 37.6804 71.0877L39.9264 56.6881C37.5715 56.3208 35.3338 55.4128 33.3887 54.0354C31.4437 52.658 29.8442 50.8487 28.7159 48.7493C27.5875 46.65 26.961 44.3177 26.8854 41.9356C26.8097 39.5534 27.2871 37.1861 28.2801 35.0194C29.273 32.8527 30.7544 30.9456 32.6082 29.4476C34.462 27.9496 36.6376 26.9016 38.9645 26.3856C41.2913 25.8697 43.7061 25.8999 46.0193 26.474C48.3325 27.048 50.4812 28.1502 52.2969 29.6942L61.7377 18.5917Z" fill="#F2F6FC"/>
<path d="M12.3106 40.8089C12.1846 46.741 13.8205 52.5772 17.0114 57.5796C20.2023 62.582 24.8049 66.5258 30.2372 68.9124C35.6695 71.2989 41.6875 72.021 47.5302 70.9874C53.3729 69.9537 58.7779 67.2107 63.0617 63.1051C67.3454 58.9996 70.3155 53.7161 71.5965 47.9225C72.8774 42.129 72.4115 36.0857 70.2579 30.557C68.1042 25.0282 64.3594 20.2622 59.4971 16.8617C54.6347 13.4612 48.8732 11.5789 42.9411 11.4529L42.6315 26.0233C45.6819 26.0882 48.6445 27.056 51.1448 28.8046C53.645 30.5532 55.5706 33.0039 56.678 35.8468C57.7855 38.6898 58.025 41.7973 57.3664 44.7763C56.7077 47.7554 55.1804 50.4723 52.9777 52.5834C50.775 54.6945 47.9957 56.105 44.9913 56.6365C41.9869 57.168 38.8924 56.7967 36.0991 55.5695C33.3057 54.3423 30.939 52.3144 29.2982 49.7421C27.6574 47.1698 26.8163 44.1688 26.8811 41.1184L12.3106 40.8089Z" fill="#2ED480"/>
</svg>
