<svg width="73" height="73" viewBox="0 0 73 73" fill="none" xmlns="http://www.w3.org/2000/svg">
<path d="M34.4686 6.11295C29.8437 6.41949 25.3528 7.79349 21.3481 10.1272C17.3435 12.4608 13.934 15.6907 11.3872 19.5633C8.84044 23.4359 7.22563 27.846 6.66946 32.4475C6.1133 37.049 6.63092 41.7168 8.18171 46.0847C9.73251 50.4526 12.2743 54.4017 15.6076 57.6223C18.941 60.8429 22.9753 63.2473 27.3939 64.6469C31.8126 66.0465 36.4954 66.4032 41.0751 65.689C45.6547 64.9749 50.0066 63.2093 53.7894 60.5307L45.3674 48.6369C43.4223 50.0142 41.1845 50.9221 38.8296 51.2893C36.4747 51.6565 34.0667 51.4731 31.7946 50.7534C29.5225 50.0338 27.448 48.7974 25.734 47.1413C24.02 45.4853 22.7129 43.4546 21.9155 41.2086C21.1181 38.9626 20.8519 36.5624 21.1379 34.1962C21.4239 31.8301 22.2542 29.5624 23.5638 27.5711C24.8734 25.5797 26.6266 23.9189 28.6858 22.7189C30.745 21.5189 33.0543 20.8124 35.4325 20.6548L34.4686 6.11295Z" fill="#272B30"/>
<path d="M21.7154 62.1779C26.1533 64.6808 31.1555 66.0122 36.2503 66.0466C41.3452 66.0809 46.3649 64.8172 50.8361 62.3744C55.3074 59.9316 59.0828 56.3903 61.8064 52.0844C64.53 47.7785 66.1122 42.8499 66.4036 37.7632C66.695 32.6766 65.6862 27.5995 63.4721 23.0107C61.2581 18.4219 57.9118 14.4726 53.7488 11.5351C49.5859 8.59769 44.7434 6.76887 39.6779 6.22113C34.6124 5.67339 29.4909 6.42477 24.7962 8.40442L30.4588 21.8331C32.8729 20.8151 35.5064 20.4288 38.1111 20.7104C40.7158 20.9921 43.2059 21.9325 45.3465 23.4429C47.4872 24.9534 49.2078 26.9842 50.3463 29.3437C51.4848 31.7033 52.0036 34.314 51.8537 36.9296C51.7039 39.5452 50.8903 42.0796 49.4898 44.2937C48.0893 46.5078 46.1479 48.3288 43.8488 49.5849C41.5497 50.841 38.9685 51.4908 36.3487 51.4732C33.7288 51.4555 31.1567 50.7709 28.8747 49.4839L21.7154 62.1779Z" fill="#FD8539"/>
</svg>
