<svg width="73" height="73" viewBox="0 0 73 73" fill="none" xmlns="http://www.w3.org/2000/svg">
<path d="M34.9686 6.11295C30.3437 6.41949 25.8528 7.79349 21.8481 10.1272C17.8435 12.4608 14.434 15.6907 11.8872 19.5633C9.34044 23.4359 7.72563 27.846 7.16946 32.4475C6.6133 37.049 7.13092 41.7168 8.68171 46.0847C10.2325 50.4526 12.7743 54.4017 16.1076 57.6223C19.441 60.8429 23.4753 63.2473 27.8939 64.6469C32.3126 66.0465 36.9954 66.4032 41.5751 65.689C46.1547 64.9749 50.5066 63.2093 54.2894 60.5307L45.8674 48.6369C43.9223 50.0142 41.6845 50.9221 39.3296 51.2893C36.9747 51.6565 34.5667 51.4731 32.2946 50.7534C30.0225 50.0338 27.948 48.7974 26.234 47.1413C24.52 45.4853 23.2129 43.4546 22.4155 41.2086C21.6181 38.9626 21.3519 36.5624 21.6379 34.1962C21.9239 31.8301 22.7542 29.5624 24.0638 27.5711C25.3734 25.5797 27.1266 23.9189 29.1858 22.7189C31.245 21.5189 33.5543 20.8124 35.9325 20.6548L34.9686 6.11295Z" fill="#272B30"/>
<path d="M14.6385 56.0991C18.8078 60.7388 24.3196 63.9635 30.4071 65.3245C36.4945 66.6855 42.8548 66.1151 48.603 63.6927C54.3512 61.2703 59.2013 57.1164 62.4786 51.8089C65.7558 46.5014 67.2972 40.3044 66.8881 34.0801C66.4791 27.8558 64.1401 21.9137 60.1965 17.0808C56.2529 12.2478 50.9008 8.76431 44.8851 7.11497C38.8693 5.46563 32.4891 5.73249 26.6321 7.87841C20.775 10.0243 15.7326 13.9426 12.2063 19.088L24.2279 27.3267C26.0411 24.6808 28.634 22.666 31.6457 21.5626C34.6575 20.4591 37.9383 20.3219 41.0316 21.17C44.125 22.0181 46.877 23.8094 48.9048 26.2945C50.9327 28.7797 52.1354 31.8351 52.3458 35.0357C52.5561 38.2363 51.7635 41.4229 50.0783 44.152C48.3932 46.8812 45.8992 49.0172 42.9434 50.2628C39.9876 51.5084 36.7171 51.8017 33.5869 51.1019C30.4567 50.402 27.6224 48.7438 25.4785 46.3581L14.6385 56.0991Z" fill="#FE6D8E"/>
</svg>
